<svg width="173" height="47" viewBox="0 0 173 47" fill="none" xmlns="http://www.w3.org/2000/svg">
<path d="M22.8111 24.2L16.4751 36.368H12.4671L6.13113 24.2H0.443125L9.32313 40.904V41H19.5951L28.5231 24.2H22.8111ZM29.9734 41H35.2534V24.2H29.9734V41ZM63.5329 29.576C63.5329 26.6 61.1329 24.2 58.1569 24.2H37.6609V41H58.1569C61.1329 41 63.5329 38.624 63.5329 35.648C63.5329 34.472 63.1009 33.416 62.3569 32.576C63.1009 31.784 63.5329 30.752 63.5329 29.576ZM42.8209 28.832H57.3169C57.7729 28.832 58.1569 29.216 58.1569 29.696C58.1569 30.176 57.7489 30.56 57.3169 30.56H42.8209V28.832ZM57.2449 36.368H42.8209V34.496H57.2209C57.7729 34.496 58.1569 35 58.1569 35.432C58.1569 35.96 57.7489 36.368 57.2449 36.368ZM65.4578 41H70.7618V37.16H82.1618L84.4418 41H90.5618L87.5858 36.464C89.9138 35.384 91.3298 33.2 91.3298 30.68C91.3298 27.104 88.4978 24.2 84.2018 24.2H65.4578V41ZM70.7618 32.528V28.832H84.2018C85.2098 28.832 86.0498 29.648 86.0498 30.68C86.0498 31.712 85.2098 32.528 84.2018 32.528H70.7618ZM115.21 41H120.562L116.122 24.2H96.9222L92.4822 41H97.8102L98.5062 38.336H114.514L115.21 41ZM99.7062 33.656L100.954 28.832H112.042L113.29 33.656H99.7062ZM145.92 24.2H119.856V28.832H130.248V41H135.528V28.832H145.92V24.2ZM171.589 28.76V24.2H148.309V41H171.589V36.44H153.589V34.808H169.957V30.44H153.589V28.76H171.589Z" fill="black"/>
<path d="M1.53764 13H3.45564V9.64H5.73764C7.71164 9.64 8.97164 8.268 8.97164 6.392C8.97164 4.572 7.73964 3.2 5.73764 3.2H1.53764V13ZM3.45564 7.918V4.908H5.38764C6.40964 4.908 7.01164 5.44 7.01164 6.392C7.01164 7.414 6.45164 7.918 5.38764 7.918H3.45564ZM34.2294 9.192C35.4334 8.758 36.2034 7.694 36.2034 6.266C36.2034 4.6 34.9994 3.2 32.9274 3.2H28.6294V13H30.5474V9.416H32.1994L34.4534 13H36.6654V12.86L34.2294 9.192ZM30.5474 4.922H32.8294C33.7954 4.922 34.2294 5.538 34.2294 6.28C34.2294 7.064 33.8094 7.708 32.8294 7.708H30.5474V4.922ZM60.0823 13.126C63.1903 13.126 64.7163 10.9 64.7163 8.1C64.7163 5.286 63.1903 3.074 60.0823 3.074C56.9603 3.074 55.4483 5.286 55.4483 8.1C55.4483 10.9 56.9603 13.126 60.0823 13.126ZM60.0823 11.376C58.2623 11.376 57.4083 10.074 57.4083 8.1C57.4083 6.126 58.2483 4.824 60.0823 4.824C61.9023 4.824 62.7563 6.126 62.7563 8.1C62.7563 10.074 61.9023 11.376 60.0823 11.376ZM86.6536 13.126C88.7536 13.126 89.9016 11.81 89.9016 10.004V3.2H87.9696V10.004C87.9696 10.788 87.5916 11.362 86.6816 11.362C85.7856 11.362 85.3796 10.858 85.3656 10.102H83.4896C83.4896 11.782 84.5956 13.126 86.6536 13.126ZM109.973 13H116.763V11.292H111.891V8.8H116.329V7.092H111.891V4.922H116.763V3.2H109.973V13ZM140.578 13.126C143.028 13.126 144.582 11.544 144.792 9.528H142.846C142.664 10.564 141.978 11.39 140.578 11.39C138.772 11.39 137.918 10.088 137.918 8.114C137.918 6.14 138.772 4.824 140.578 4.824C142.034 4.824 142.734 5.72 142.832 6.77H144.792C144.638 4.698 143.042 3.074 140.578 3.074C137.526 3.074 135.958 5.23 135.958 8.114C135.958 10.956 137.526 13.126 140.578 13.126ZM166.461 13H168.393V4.936H171.277V3.2H163.577V4.936H166.461V13Z" fill="black"/>
</svg>
