<svg width="180" height="180" viewBox="0 0 180 180" fill="none" xmlns="http://www.w3.org/2000/svg">
<rect width="180" height="180" fill="#511C58"/>
<path d="M58.0253 59L49.5202 75.472H44.1402L35.6352 59H28L39.9199 81.6124V81.7424H53.7083L65.6927 59H58.0253Z" fill="white"/>
<path d="M67.6394 81.7424H74.727V59H67.6394V81.7424Z" fill="white"/>
<path d="M112.687 66.2776C112.687 62.2489 109.466 59 105.471 59H77.9586V81.7424H105.471C109.466 81.7424 112.687 78.5259 112.687 74.4973C112.687 72.9053 112.108 71.4758 111.109 70.3387C112.108 69.2666 112.687 67.8695 112.687 66.2776ZM84.885 65.2704H104.343C104.956 65.2704 105.471 65.7902 105.471 66.44C105.471 67.0898 104.923 67.6096 104.343 67.6096H84.885V65.2704ZM104.247 75.472H84.885V72.9378H104.215C104.956 72.9378 105.471 73.6201 105.471 74.2049C105.471 74.9197 104.923 75.472 104.247 75.472Z" fill="white"/>
<path d="M115.271 81.7424H122.391V76.5441H137.694L140.754 81.7424H148.969L144.974 75.6019C148.099 74.1399 150 71.1834 150 67.7721C150 62.9312 146.199 59 140.432 59H115.271V81.7424ZM122.391 70.2737V65.2704H140.432C141.785 65.2704 142.912 66.375 142.912 67.7721C142.912 69.1691 141.785 70.2737 140.432 70.2737H122.391Z" fill="white"/>
<path d="M66.2164 121H73.4006L67.4406 98.2576H41.6679L35.7079 121H42.8599L43.7941 117.394H65.2821L66.2164 121ZM45.4049 111.058L47.0801 104.528H61.9639L63.6391 111.058H45.4049Z" fill="white"/>
<path d="M107.439 98.2576H72.453V104.528H86.4025V121H93.49V104.528H107.439V98.2576Z" fill="white"/>
<path d="M141.896 104.431V98.2576H110.646V121H141.896V114.827H117.734V112.618H139.705V106.705H117.734V104.431H141.896Z" fill="white"/>
</svg>
